<?xml version="1.0" encoding="UTF-8"?>
<!DOCTYPE svg PUBLIC "-//W3C//DTD SVG 1.1//EN" "http://www.w3.org/Graphics/SVG/1.1/DTD/svg11.dtd">
<svg xmlns="http://www.w3.org/2000/svg" version="1.1" width="483px" height="351px" style="shape-rendering:geometricPrecision; text-rendering:geometricPrecision; image-rendering:optimizeQuality; fill-rule:evenodd; clip-rule:evenodd" xmlns:xlink="http://www.w3.org/1999/xlink">
<g><path style="opacity:1" fill="#ffb28e" d="M 174.5,134.5 C 172.208,133.314 169.874,133.314 167.5,134.5C 168.312,133.007 169.645,132.34 171.5,132.5C 173.03,132.64 174.03,133.307 174.5,134.5 Z"/></g>
<g><path style="opacity:0.995" fill="#fff5ec" d="M 174.5,134.5 C 174.854,138.637 174.354,142.637 173,146.5C 165.953,154.545 159.287,162.878 153,171.5C 147.61,172.944 142.11,173.444 136.5,173C 146.697,159.979 157.031,147.145 167.5,134.5C 169.874,133.314 172.208,133.314 174.5,134.5 Z"/></g>
<g><path style="opacity:0.999" fill="#fff4ee" d="M 143.5,133.5 C 147.514,133.334 151.514,133.501 155.5,134C 157.504,136.841 158.004,140.007 157,143.5C 155.509,145.004 153.676,145.837 151.5,146C 144.842,146.5 138.175,146.666 131.5,146.5C 131.5,142.5 131.5,138.5 131.5,134.5C 135.702,134.817 139.702,134.483 143.5,133.5 Z"/></g>
<g><path style="opacity:0.992" fill="#ff9d72" d="M 284.5,135.5 C 279.797,135.437 275.13,135.771 270.5,136.5C 273.017,135.027 275.85,134.36 279,134.5C 281.033,134.506 282.866,134.839 284.5,135.5 Z"/></g>
<g><path style="opacity:0.996" fill="#fff3e7" d="M 284.5,135.5 C 291.973,137.089 295.64,141.756 295.5,149.5C 292.15,149.665 288.817,149.498 285.5,149C 283.496,144.78 280.163,143.447 275.5,145C 275,145.5 274.5,146 274,146.5C 273.333,155.167 273.333,163.833 274,172.5C 276.167,175.287 279.001,176.12 282.5,175C 283.88,173.075 285.38,171.241 287,169.5C 289.719,170.444 292.552,170.777 295.5,170.5C 295.982,178.052 292.649,182.886 285.5,185C 277.545,186.95 270.711,185.117 265,179.5C 264.333,178.167 263.667,176.833 263,175.5C 262.333,165.167 262.333,154.833 263,144.5C 264.32,140.681 266.82,138.015 270.5,136.5C 275.13,135.771 279.797,135.437 284.5,135.5 Z"/></g>
<g><path style="opacity:0.995" fill="#fff8f2" d="M 179.5,135.5 C 183.437,135.207 187.27,135.54 191,136.5C 194.52,143.872 197.186,151.539 199,159.5C 200.792,151.622 203.292,143.956 206.5,136.5C 210.167,135.167 213.833,135.167 217.5,136.5C 213,146.833 208.5,157.167 204,167.5C 203.501,173.157 203.334,178.824 203.5,184.5C 200.167,184.5 196.833,184.5 193.5,184.5C 193.666,178.491 193.499,172.491 193,166.5C 188.505,156.176 184.005,145.842 179.5,135.5 Z"/></g>
<g><path style="opacity:0.994" fill="#fff7f0" d="M 222.5,135.5 C 226.833,135.5 231.167,135.5 235.5,135.5C 238.712,148.348 242.546,161.015 247,173.5C 246.533,160.884 246.033,148.217 245.5,135.5C 248.833,135.5 252.167,135.5 255.5,135.5C 255.5,151.833 255.5,168.167 255.5,184.5C 251.167,184.5 246.833,184.5 242.5,184.5C 238.773,172.15 234.939,159.817 231,147.5C 231.394,159.797 231.561,172.13 231.5,184.5C 228.5,184.5 225.5,184.5 222.5,184.5C 222.5,168.167 222.5,151.833 222.5,135.5 Z"/></g>
<g><path style="opacity:0.997" fill="#fff7eb" d="M 165.5,174.5 C 168.833,174.5 172.167,174.5 175.5,174.5C 175.793,178.437 175.46,182.27 174.5,186C 166.889,187.478 159.222,187.812 151.5,187C 149.522,184.503 149.022,181.669 150,178.5C 150.5,177.333 151.333,176.5 152.5,176C 157.019,175.825 161.353,175.325 165.5,174.5 Z"/></g>
<g><path style="opacity:0.995" fill="#fff5e6" d="M 132.5,176.5 C 135.579,176.26 138.579,176.593 141.5,177.5C 144.912,186.103 141.912,189.769 132.5,188.5C 132.5,184.5 132.5,180.5 132.5,176.5 Z"/></g>
</svg>
