<svg width="166" height="56" viewBox="0 0 166 56" fill="none" xmlns="http://www.w3.org/2000/svg">
<rect width="166" height="56" fill="#E5E5E5"/>
<path d="M63.075 52V34.58L49.005 3.09H59.524L65.688 17.83C66.3133 19.304 66.8493 20.8673 67.296 22.52C67.7873 24.1727 68.1223 25.5127 68.301 26.54C68.5243 25.5127 68.837 24.1727 69.239 22.52C69.6857 20.8673 70.1993 19.304 70.78 17.83L76.743 3.09H87.195L73.125 34.58V52H63.075ZM92.1938 52V3.09H103.919L116.582 40.945C116.448 39.2923 116.291 37.394 116.113 35.25C115.934 33.0613 115.778 30.895 115.644 28.751C115.554 26.5623 115.51 24.7087 115.51 23.19V3.09H124.354V52H112.629L100.1 14.145C100.234 15.5743 100.368 17.2717 100.502 19.237C100.636 21.2023 100.747 23.19 100.837 25.2C100.971 27.21 101.038 28.9967 101.038 30.56V52H92.1938ZM148.716 52.67C145.455 52.67 142.596 52.067 140.14 50.861C137.683 49.6103 135.762 47.8907 134.378 45.702C133.038 43.4687 132.368 40.878 132.368 37.93V17.16C132.368 14.1673 133.038 11.5767 134.378 9.388C135.762 7.19933 137.683 5.502 140.14 4.296C142.596 3.04533 145.455 2.42 148.716 2.42C152.021 2.42 154.88 3.04533 157.292 4.296C159.748 5.502 161.647 7.19933 162.987 9.388C164.371 11.5767 165.064 14.1673 165.064 17.16H155.014C155.014 15.1947 154.455 13.6983 153.339 12.671C152.267 11.6437 150.726 11.13 148.716 11.13C146.706 11.13 145.142 11.6437 144.026 12.671C142.954 13.6983 142.418 15.1947 142.418 17.16V37.93C142.418 39.8507 142.954 41.347 144.026 42.419C145.142 43.4463 146.706 43.96 148.716 43.96C150.726 43.96 152.267 43.4463 153.339 42.419C154.455 41.347 155.014 39.8507 155.014 37.93H165.064C165.064 40.878 164.371 43.4687 162.987 45.702C161.647 47.8907 159.748 49.6103 157.292 50.861C154.88 52.067 152.021 52.67 148.716 52.67Z" fill="white"/>
<path fill-rule="evenodd" clip-rule="evenodd" d="M2.64326 44.7341C2.12035 45.247 1.79824 45.9905 1.81784 46.8011L1.97464 53.2828C2.0099 54.7413 3.13811 55.8644 4.49452 55.7916L7.63194 55.6232C9.07827 55.5456 10.4439 54.8251 11.4017 53.6338C14.416 49.8854 11.9124 44.1773 7.36099 44.4215L2.80273 44.6662C2.7443 44.6694 2.68698 44.691 2.64326 44.7341ZM23.7728 43.5406L42.191 42.5521C42.9214 42.513 43.749 42.2075 44.2482 42.7687C44.6446 43.2142 44.8932 43.8156 44.9094 44.4883L45.0663 50.9698C45.1016 52.4283 44.0307 53.6695 42.6742 53.7423L24.0437 54.7423C19.4924 54.9866 16.9886 49.2787 20.0028 45.5303C20.9608 44.3391 22.3263 43.6185 23.7728 43.5406ZM21.4731 38.9389C21.0775 39.4309 20.5135 39.7287 19.9163 39.7606L6.74344 40.4678C6.60143 40.4753 6.5057 40.1332 6.59978 40.0162L36.5694 2.74677C37.7916 1.22695 39.5339 0.307432 41.3793 0.208396C42.7356 0.135574 43.8639 1.25884 43.8992 2.71726L44.0558 9.19893C44.0766 10.0552 43.8319 10.953 43.3788 11.6695C43.3237 11.7568 43.2631 11.8415 43.1973 11.9233L21.4731 38.9389ZM21.9251 13.0309C23.444 12.9494 24.8779 12.1926 25.8837 10.9417C29.0492 7.00532 26.4201 1.01132 21.6406 1.26785L3.1995 2.25769C1.84309 2.3305 0.772102 3.5718 0.807382 5.0302L0.964171 11.5119C0.999452 12.9703 2.12764 14.0936 3.48405 14.0208L21.9251 13.0309Z" fill="white"/>
<path fill-rule="evenodd" clip-rule="evenodd" d="M2.64326 44.7341C2.12035 45.247 1.79824 45.9905 1.81784 46.8011L1.97464 53.2828C2.0099 54.7413 3.13811 55.8644 4.49452 55.7916L7.63194 55.6232C9.07827 55.5456 10.4439 54.8251 11.4017 53.6338C14.416 49.8854 11.9124 44.1773 7.36099 44.4215L2.80273 44.6662C2.7443 44.6694 2.68698 44.691 2.64326 44.7341ZM23.7728 43.5406L42.191 42.5521C42.9214 42.513 43.749 42.2075 44.2482 42.7687C44.6446 43.2142 44.8932 43.8156 44.9094 44.4883L45.0663 50.9698C45.1016 52.4283 44.0307 53.6695 42.6742 53.7423L24.0437 54.7423C19.4924 54.9866 16.9886 49.2787 20.0028 45.5303C20.9608 44.3391 22.3263 43.6185 23.7728 43.5406ZM21.4731 38.9389C21.0775 39.4309 20.5135 39.7287 19.9163 39.7606L6.74344 40.4678C6.60143 40.4753 6.5057 40.1332 6.59978 40.0162L36.5694 2.74677C37.7916 1.22695 39.5339 0.307432 41.3793 0.208396C42.7356 0.135574 43.8639 1.25884 43.8992 2.71726L44.0558 9.19893C44.0766 10.0552 43.8319 10.953 43.3788 11.6695C43.3237 11.7568 43.2631 11.8415 43.1973 11.9233L21.4731 38.9389ZM21.9251 13.0309C23.444 12.9494 24.8779 12.1926 25.8837 10.9417C29.0492 7.00532 26.4201 1.01132 21.6406 1.26785L3.1995 2.25769C1.84309 2.3305 0.772102 3.5718 0.807382 5.0302L0.964171 11.5119C0.999452 12.9703 2.12764 14.0936 3.48405 14.0208L21.9251 13.0309Z" fill="white" fill-opacity="0.2"/>
</svg>
